<svg width="24" height="24" viewBox="0 0 24 24" fill="none" xmlns="http://www.w3.org/2000/svg">
<path d="M19.5 5H4.5C3.12164 5 2 6.12164 2 7.5V16.5C2 17.8784 3.12164 19 4.5 19H19.5C20.8784 19 22 17.8784 22 16.5V7.5C22 6.12164 20.8784 5 19.5 5ZM3.2373 9.06543L11.8818 13.7197C11.9182 13.7392 11.9587 13.75 12 13.75C12.0413 13.75 12.0818 13.7392 12.1182 13.7197L20.7627 9.06543L21.5 8.66797V16.5C21.5 17.0304 21.2891 17.539 20.9141 17.9141C20.539 18.2891 20.0304 18.5 19.5 18.5H4.5C3.96957 18.5 3.46101 18.2891 3.08594 17.9141C2.71086 17.539 2.5 17.0304 2.5 16.5V8.66797L3.2373 9.06543ZM19.5 5.5C20.6045 5.5 21.5 6.39768 21.5 7.5V8.10059L21.2373 8.24219L12.2373 13.0879L12 13.2158L11.7627 13.0879L2.7627 8.24219L2.5 8.10059V7.5C2.5 6.39768 3.39553 5.5 4.5 5.5H19.5Z" fill="#FF7D2D" stroke="#828282"/>
</svg>
