<svg width="56" height="56" viewBox="0 0 56 56" fill="none" xmlns="http://www.w3.org/2000/svg">
<path d="M8.92321 7.94744C9.80627 7.29677 10.759 6.97144 11.7583 6.97144H44.0131C45.0355 6.97144 45.9418 7.29677 46.7784 7.94744C47.6382 8.59812 48.1727 9.4347 48.4748 10.4572L50.8684 20.7053C51.4493 23.2382 50.9845 25.4459 49.4508 27.3514L49.1022 27.7L48.8001 28.0253C47.4756 29.3964 45.9186 30.2097 43.711 30.2097C41.5033 30.2097 39.7604 29.3267 38.4359 28.0021C36.9718 29.4429 35.2522 30.2097 33.2305 30.2097C31.2552 30.2097 29.4659 29.5126 27.8857 28.0486C26.5843 29.3499 24.7253 30.2097 22.7732 30.2097C20.5888 30.2097 18.8227 29.4429 17.3587 28.0021C16.0574 29.257 14.3145 30.2097 12.1301 30.2097H11.6189V44.1527H28.0716C28.3504 45.8259 28.9314 47.3828 29.7447 48.8004H11.6189C10.4569 48.8004 9.29502 48.2891 8.38873 47.3828C7.48244 46.4766 6.97119 45.3146 6.97119 44.1527V27.9556C6.73881 27.7465 6.50643 27.5141 6.25081 27.2585C4.78679 25.3762 4.32203 23.2382 4.90298 20.7053L7.29653 10.4572C7.52891 9.4347 8.04015 8.59812 8.92321 7.94744ZM46.4066 21.7975L43.8969 11.5494L39.4351 11.6191L40.8526 22.8664C40.9224 23.6101 41.2012 24.2375 41.7125 24.772C42.2237 25.3297 42.8511 25.5621 43.5715 25.5621C44.4546 25.5621 45.175 25.2367 45.7559 24.5164C46.4066 23.703 46.6157 22.7967 46.4066 21.7975ZM16.3362 11.6191H11.7583L9.36474 21.7975C9.15559 22.7967 9.36474 23.703 10.0154 24.5164C10.5267 25.2367 11.247 25.5621 12.1998 25.5621C13.7335 25.5621 14.6398 24.7023 14.9187 22.8664M25.5618 11.6191H21.0304L19.7523 22.0763V22.4481C19.7523 23.2382 20.0079 23.9354 20.5424 24.6093C21.0768 25.2832 21.7508 25.5621 22.5409 25.5621C23.4239 25.5621 24.1443 25.2832 24.7253 24.679C25.3062 24.0516 25.5618 23.3544 25.5618 22.5411M34.741 11.6191H30.2095V22.5411C30.2095 23.3544 30.4651 24.0516 31.0461 24.679C31.627 25.2832 32.2777 25.5621 32.9981 25.5621C33.9509 25.5621 34.741 25.26 35.3452 24.5628C36.0191 23.8657 36.205 23.0523 36.0191 22.0763M44.1525 32.5336H39.5048V39.5051H32.5333V44.1527H39.5048V51.1242H44.1525V44.1527H51.124V39.5051H44.1525V32.5336Z" fill="#FF7D2D"/>
</svg>
