<svg width="24" height="24" viewBox="0 0 24 24" fill="none" xmlns="http://www.w3.org/2000/svg">
<path d="M2.85935 17.5312C3.60373 16.7812 5.40654 15.6867 6.28123 15.2456C7.42029 14.6718 7.51404 14.6249 8.40935 15.2901C9.00654 15.734 9.40357 16.1306 10.1025 15.9815C10.8014 15.8324 12.3201 14.992 13.65 13.6663C14.9798 12.3407 15.869 10.7779 16.0186 10.0813C16.1681 9.38478 15.765 8.99244 15.3253 8.39385C14.7056 7.5501 14.7525 7.40947 15.2822 6.27041C15.6951 5.38447 16.8215 3.59853 17.5744 2.85791C18.3797 2.06244 18.3797 2.20306 18.8986 2.41869C19.321 2.5964 19.7263 2.81246 20.1094 3.06416C20.8594 3.56244 21.2756 3.97635 21.5667 4.59838C21.8578 5.22041 21.9886 6.67869 20.4853 9.40963C18.982 12.1406 17.9273 13.537 15.7444 15.7138C13.5614 17.8907 11.8828 19.0612 9.42888 20.4374C6.39326 22.1376 5.22888 21.8062 4.60498 21.5156C3.98107 21.2249 3.56529 20.8124 3.06607 20.0624C2.81373 19.6801 2.59719 19.2752 2.41919 18.8531C2.2031 18.336 2.06248 18.336 2.85935 17.5312Z" stroke="#828282" stroke-width="1.5" stroke-miterlimit="10"/>
</svg>
