<svg width="25" height="23" viewBox="0 0 25 23" fill="none" xmlns="http://www.w3.org/2000/svg">
<path d="M18.7879 0.530019L23.558 5.34726C23.7246 5.51519 23.8568 5.71469 23.947 5.93432C24.0371 6.15395 24.0835 6.3894 24.0833 6.62715C24.0832 6.86491 24.0366 7.1003 23.9462 7.31983C23.8558 7.53935 23.7233 7.73869 23.5565 7.90642L18.7864 12.7237C18.4504 13.063 17.9946 13.2537 17.5194 13.2537C17.0442 13.2537 16.5884 13.063 16.2524 12.7237C15.9163 12.3843 15.7275 11.924 15.7275 11.4441C15.7275 10.9641 15.9163 10.5039 16.2524 10.1645L17.9696 8.4318H17.5224C12.1561 8.4318 11.0978 10.991 9.63396 14.5467C8.20891 17.9985 6.4604 22.2332 0 22.8158C4.06943 22.3581 5.01597 16.3426 6.33071 13.1557C7.86308 9.44192 9.7711 4.81887 17.5224 4.81887H17.9696L16.2539 3.08918C15.9178 2.74981 15.729 2.28953 15.729 1.8096C15.729 1.32966 15.9178 0.869385 16.2539 0.530019C16.5899 0.190653 17.0457 0 17.5209 0C17.9961 0 18.4519 0.190653 18.7879 0.530019Z" fill="#FF7D2D"/>
</svg>
